# xmcd CD database file
#
# Track frame offsets:
#	150
#	14834
#	30434
#	48086
#	64845
#	80883
#	97642
#	115706
#	134103
#	149549
#	166504
#	187626
#
# Disc length: 2740 seconds
#
# Revision: 1
# Processed by: cddbd v1.5.2PL0 Copyright (c) Steve Scherf et al.
# Submitted via: CDex 1.70beta2
#
DISCID=960ab20c
DTITLE=Neko Jump - BKK to NRT
DYEAR=2010
DGENRE=Ethnic
TTITLE0=Poo
TTITLE1=Sa Rang Hae Yo
TTITLE2=My Gallery
TTITLE3=Chuai Mad Noi
TTITLE4=Khao Cha Ngao Mai
TTITLE5=Kuen Kuen
TTITLE6=Puan Naa Jo
TTITLE7=Khao Ja Pai Jeep Krai Eek Mai
TTITLE8=Ideska
TTITLE9=Joob Joob
TTITLE10=Poo [Yamanote Line Daydream Mix]
TTITLE11=Chuai Mad Noi [Jazzy Mix]
EXTD=YEAR: 2010
EXTT0=
EXTT1=
EXTT2=
EXTT3=
EXTT4=
EXTT5=
EXTT6=
EXTT7=
EXTT8=
EXTT9=
EXTT10=
EXTT11=
PLAYORDER=
